<svg xmlns="http://www.w3.org/2000/svg" width="141" height="100" fill="none" fill-rule="evenodd" xmlns:v="https://vecta.io/nano"><path d="M76.969 43.917c-2.722-.517-5.465-.787-7.4-.787-6.86 0-9.311 2.856-9.311 7.827v4.521c0 4.521 1.687 7.602 9.806 7.602 2.159 0 4.813-.202 7.4-.72v-4.026c-2.047.382-3.936.472-6.927.472-3.216 0-5.016-1.552-5.016-4.273v-2.609c0-2.879 1.439-4.521 4.296-4.521.472 0 1.417 0 1.912.135v2.946h5.263v-6.567h-.022zm-21.974 6.567c0-5.375-2.451-7.355-6.927-7.355-1.687 0-3.329.472-5.263 1.417l-.472-.945h-6.927v4.273h2.879v10.931H35.9v4.273h10.031v-4.273h-2.384V47.875c1.08-.382 2.159-.495 3.396-.495 3.081 0 2.834 2.676 2.834 4.521v11.156h8.119v-4.273h-2.879v-8.299h-.023zm-24.853 8.299h2.879v4.273H22v-4.273h2.879v-18.51h-2.384V36h10.031v4.273h-2.384v18.51z" fill="#010202"/><path d="M114.732 45.019c0-1.979-.72-4.746-4.071-4.746-3.531 0-5.151 3.396-4.071 7.13h-4.701c-.36-1.057-.562-4.026.563-6.388 1.259-2.609 4.228-4.993 8.141-4.993h-9.738-8.12L82.704 50.979v6.41h10.751v-4.273H87.72l8.367-12.82h.247V63.08h4.543c0-8.434 4.948-11.156 9.559-13.09 2.541-1.057 4.296-2.362 4.296-4.971zm4.768-.225v14.012h-11.943c0-2.384 2.227-2.789 5.016-4.273 3.576-1.934 6.927-4.296 6.927-9.739z" fill="#e62b35"/></svg>