<svg xmlns="http://www.w3.org/2000/svg" width="141" height="100" fill="none" xmlns:v="https://vecta.io/nano"><path d="M4.548 56.632c.951-.005 1.562-.043 1.844-.112.274-.072.439-.271.489-.595s.066-3.294.045-8.911l-.062-2.537-1.273.008c-.706.078-1.243.343-1.616.787-.414.511-.764 1.011-.874 2.172h-.085L3 44.135l4.976-.002 5.083-.025.014 3.338h-.038c-.188-1.234-.285-1.297-.424-1.638-.376-.903-1.073-1.35-2.094-1.345l-1.425.006-.025 2.866.018 4.081.043 4.689c.021.161.251.28.697.37a8.05 8.05 0 0 0 1.592.124l.088.209-7.044.034.088-.209zm11.827.202l-2.245-.046-2.373.053v-.256c.974-.007 1.497-.11 1.552-.312.023-.071.038-.35.046-.843l.002-2.04-.008-2.015-.004-1.252-.002-.395-.001-.298-.001-.248.001-.187c-.004-.408-.024-.651-.065-.731-.061-.194-.576-.29-1.554-.285v-.274l2.447.042 2.172-.064.002.273c-.829.004-1.293.098-1.394.275-.054.162-.078 1.389-.068 3.681l3.752-.019-.007-.77-.001-.607-.094-2.285c-.062-.192-.528-.28-1.408-.279l.001-.272 2.131.046 2.502-.069.001.273c-.969.004-1.48.098-1.533.279s-.077 1.199-.066 3.055l.002.839.102 4.181c.061.17.568.254 1.526.249l.002.274-2.427-.043-2.204.053-.003-.263c.839-.002 1.302-.092 1.391-.275.067-.127.096-1.445.084-3.947l-3.751.017.101 3.92c.036.102.226.172.572.215l.819.079v.273zm7.345-.572c.056-.191.082-1.163.074-2.913l-.005-2.03-.096-3.123c-.053-.185-.575-.276-1.559-.273l-.003-.216 1.992-.011 1.876-.008 3.86-.018.018 3.567h-.213c-.139-1.39-.409-2.295-.811-2.712s-1.151-.627-2.254-.621l-.688.004c-.299.02-.471.076-.509.178-.065.147-.094 1.409-.086 3.787l.503.012c.697-.004 1.179-.176 1.439-.518s.39-.985.386-1.93h.198l.022 5.282h-.199c-.001-.967-.128-1.646-.371-2.036s-.671-.586-1.274-.583l-.7.002.101 4.221c.035.145.54.216 1.521.211 1.058-.006 1.79-.229 2.201-.677.447-.484.766-1.432.95-2.852h.2l.01 2.432.017 1.379-4.56-.031-3.59.058v-.285c.98-.006 1.496-.104 1.553-.295zm11.946-.233c.078-.267.111-1.627.104-4.08l-.014-2.838-.131-4.373c-.074-.261-.805-.386-2.182-.382l-.003-.304 2.785-.015 2.626-.011L44.261 44l.022 4.992-.299.002c-.195-1.948-.572-3.211-1.131-3.799-.564-.588-1.619-.877-3.162-.871l-.958.006c-.421.028-.659.114-.717.255-.091.203-.13 1.969-.116 5.296l.701.013c.979-.002 1.648-.246 2.013-.721s.546-1.38.542-2.701l.278-.001.029 7.395-.278.003c-.005-1.355-.177-2.306-.517-2.852s-.936-.819-1.79-.815l-.98.002.145 5.906c.048.206.76.302 2.13.298 1.478-.007 2.504-.324 3.083-.95.627-.676 1.069-2.006 1.326-3.989l.282-.001.013 3.403.024 1.933-6.384-.047-5.028.083.001-.402c1.365-.005 2.09-.141 2.173-.411zm16.525-3.126c.002 1.281-.268 2.276-.822 2.985s-1.322 1.068-2.318 1.076c-1.136.002-2.051-.409-2.741-1.239s-1.037-1.948-1.044-3.353c-.003-1.459.347-2.651 1.056-3.58s1.609-1.395 2.689-1.398c.405-.004.761.074 1.06.228.306.158.606.417.903.782l.117-.002.316-.542a4.87 4.87 0 0 0 .25-.604l.187.001.015 4.315-.225.002c-.272-2.633-1.134-3.945-2.573-3.937-.716.005-1.264.385-1.636 1.15s-.553 1.892-.544 3.387c.008 3.018.799 4.524 2.366 4.519a2.38 2.38 0 0 0 1.978-1.006c.498-.667.745-1.566.741-2.7v-.082l.224-.001zm2.626-4.165c-.373.74-.554 1.822-.553 3.246.008 1.496.202 2.655.594 3.484.387.826.918 1.239 1.576 1.236 1.439-.008 2.155-1.416 2.147-4.224-.007-1.567-.197-2.773-.57-3.608s-.886-1.251-1.552-1.247c-.72.001-1.267.374-1.642 1.113zm.093 7.871c-.474-.237-.894-.571-1.25-1.001a4.76 4.76 0 0 1-.842-1.518c-.201-.582-.302-1.182-.304-1.798a5.84 5.84 0 0 1 .342-2.015c.228-.635.552-1.19.974-1.662.733-.82 1.619-1.234 2.657-1.237.824-.005 1.583.298 2.264.914.499.449.885 1.013 1.17 1.693a5.69 5.69 0 0 1 .42 2.175c.01 1.331-.379 2.463-1.159 3.394s-1.723 1.402-2.821 1.409c-.489 0-.97-.116-1.45-.355zm4.544-.011c.678-.115 1.124-.327 1.337-.636.191-.27.287-.77.283-1.488l-.004-.453-.12-5.217c-.159-.371-.352-.616-.585-.733s-.594-.175-1.082-.172l-.002-.221 1.353.023 1.343-.005 4.489 6.39-.017-3.774c-.002-.915-.11-1.536-.314-1.863-.253-.388-.757-.58-1.511-.577v-.22l1.787.022 1.776-.01.001.191c-.697.004-1.141.199-1.34.591-.139.273-.204.869-.202 1.785l.011 3.131.046 1.892.045 1.745h-.25l-.727-1.262c-.142-.233-.501-.762-1.08-1.582l-3.53-5.051.106 4.983c.009.944.132 1.589.375 1.942.248.355.745.525 1.487.523l.002.245-1.565-.019-1.119.04-.994.036v-.256zm10.162-7.861c-.371.744-.555 1.823-.551 3.246.009 1.496.201 2.659.591 3.484s.911 1.241 1.577 1.239c1.443-.01 2.158-1.416 2.145-4.228-.007-1.567-.196-2.768-.566-3.605s-.887-1.253-1.553-1.249c-.719.001-1.27.376-1.642 1.112zm.093 7.873c-.476-.239-.893-.572-1.252-1.002s-.635-.933-.839-1.518-.302-1.182-.304-1.799a5.84 5.84 0 0 1 .339-2.014c.229-.634.552-1.191.974-1.664.735-.817 1.618-1.23 2.654-1.235.83-.002 1.584.302 2.265.915.501.448.893 1.013 1.168 1.692.283.681.421 1.403.425 2.175.008 1.333-.383 2.463-1.162 3.397s-1.718 1.403-2.817 1.408c-.489.001-.975-.115-1.453-.354zm6.472-8.424l.126 5.794c.005 1.028.102 1.71.295 2.043.231.398.718.598 1.456.595l-.002.203-1.065-.008c-.283-.001-.694.017-1.234.047l-1.19.045.001-.217c.566-.001.968-.124 1.196-.365s.342-.644.337-1.204l.001-.057-.109-5.217c-.002-.726-.099-1.223-.289-1.487s-.582-.401-1.173-.396v-.232l1.298.007 1.948-.01 1.909 6.511h.098l1.806-6.53.454-.002.422-.001 1.109-.006 1.367-.007v.246c-.945.006-1.436.078-1.478.22s-.058.575-.056 1.298l.002.329.021 4.872.004 1c0 .361.016.581.046.66.071.184.566.273 1.494.266v.219l-2.323-.017-2.384.011v-.191c.817-.005 1.299-.033 1.434-.089s.204-.261.202-.627l-.025-7.678-.198.002-1.191 4.282-1.102 4.346-.435.004-2.556-8.661-.216.001zm10.669 8.089c.034-.111.057-.576.071-1.398l.012-3.504-.107-3.118c-.064-.209-.579-.31-1.547-.304l-.002-.248 1.747.013 1.063.016.879-.024 1.132-.027v.246c-.977.005-1.495.108-1.557.312s-.089 1.497-.078 3.876l.118 4.158c.068.196.584.287 1.555.285v.272l-2.412-.044-2.41.056-.002-.263c.974-.002 1.486-.103 1.54-.303zm9.154-.387c-.555.711-1.326 1.069-2.319 1.076-1.137.004-2.048-.407-2.74-1.239s-1.038-1.95-1.045-3.352c-.004-1.462.346-2.652 1.053-3.583s1.606-1.394 2.692-1.397c.407-.002.759.074 1.063.228s.602.415.901.781h.116l.314-.547c.092-.182.18-.38.25-.6l.185.002.019 4.313-.224.002c-.275-2.633-1.133-3.944-2.574-3.938-.724.005-1.264.386-1.635 1.148s-.554 1.893-.547 3.388c.01 3.018.805 4.525 2.363 4.517.825-.002 1.481-.338 1.981-1.003s.745-1.565.742-2.7v-.081l.222-.002c.007 1.282-.264 2.275-.819 2.985zm5.23.742c.955-.004 1.569-.044 1.848-.111s.443-.268.491-.595c.054-.325.067-3.294.044-8.909l-.063-2.535-1.269.004c-.707.08-1.245.343-1.616.79-.413.51-.705.685-.874 2.249h-.086l-.017-3.386 4.974-.007 5.078-.023.017 3.416h-.033c-.143-1.297-.288-1.377-.429-1.717-.375-.902-1.071-1.349-2.093-1.343l-1.426.006-.023 2.866.018 4.083.045 4.687c.02.161.248.283.692.368s.979.132 1.595.126l.088.21-7.041.035.08-.211zm8.844-.355c.033-.106.057-.574.069-1.395l.012-3.505-.106-3.118c-.065-.208-.58-.307-1.551-.304v-.248l1.749.013 1.059.014.881-.024 1.135-.026-.002.246c-.976.007-1.495.11-1.555.313-.067.205-.088 1.5-.08 3.876l.117 4.158c.063.193.585.289 1.554.285l.004.273-2.417-.044-2.407.052-.001-.26c.968-.005 1.48-.106 1.539-.307zm5.212-8.101l.122 5.794c.005 1.029.101 1.711.293 2.047.232.397.72.595 1.457.592v.205l-1.072-.011-1.225.048-1.196.046v-.219c.574-.003.972-.123 1.196-.365s.343-.641.341-1.204l-.004-.057-.103-5.218c-.003-.722-.102-1.222-.291-1.486s-.581-.399-1.172-.396l.002-.231 1.298.006 1.944-.01 1.909 6.516.103-.003 1.801-6.532.457-.001.424-.002 1.105-.006 1.367-.005-.002.244c-.94.005-1.436.077-1.474.22-.043.139-.06.574-.058 1.302l.005.326.015 4.871.006 1.004c0 .356.02.575.054.658.066.181.56.27 1.492.264v.22l-2.323-.018-2.387.009.002-.187c.816-.004 1.295-.034 1.433-.088s.202-.264.2-.629l-.029-7.674h-.194l-1.192 4.28-1.101 4.347-.435.002-2.558-8.661-.21.001zm10.65 8.088c.055-.19.082-1.162.075-2.915l-.008-2.026-.093-3.124c-.056-.187-.574-.275-1.561-.272v-.219l1.988-.012 1.875-.01 3.867-.016.011 3.566h-.213c-.137-1.387-.406-2.296-.806-2.712s-1.153-.626-2.257-.62l-.688.002c-.296.021-.468.08-.507.181-.065.145-.095 1.408-.086 3.783l.499.012c.701-.002 1.18-.176 1.441-.516s.389-.988.388-1.928l.196-.002.023 5.283h-.201c-.004-.968-.125-1.646-.37-2.038s-.669-.584-1.275-.582l-.699.004.103 4.217c.032.149.54.217 1.522.213 1.053-.005 1.787-.232 2.202-.679.447-.481.761-1.432.943-2.849l.203-.001.009 2.433.018 1.382-4.56-.036-3.59.06-.004-.287c.979-.002 1.501-.101 1.555-.292zm7.011.702l-.017-4.124.186-.001c.295 1.269.726 2.234 1.295 2.902.57.661 1.237.994 1.999.99.523-.001.939-.165 1.251-.49s.455-.754.454-1.279c-.002-.683-.241-1.189-.722-1.514-.319-.216-.959-.453-1.925-.706s-1.663-.582-2.096-.981c-.491-.452-.736-1.082-.74-1.881.001-.737.229-1.344.696-1.826s1.065-.721 1.796-.724c.853-.002 1.609.406 2.272 1.229.183-.14.325-.299.434-.487s.192-.441.258-.756l.125-.001.013 3.522-.171.004c-.191-1.029-.546-1.833-1.074-2.404-.528-.581-1.161-.866-1.885-.861-.539.002-.967.15-1.28.441s-.469.686-.468 1.176c.003.562.245.985.726 1.263.365.216 1.043.431 2.029.639s1.705.525 2.15.95c.494.462.74 1.128.744 2.001.002.844-.244 1.538-.743 2.084s-1.137.813-1.918.82c-.895.002-1.689-.473-2.375-1.432-.407.264-.706.748-.892 1.447h-.122z" fill="#000"/><defs><clipPath ><path fill="#fff" transform="translate(3 44)" d="M0 0h136v13H0z"/></clipPath></defs></svg>