<svg xmlns="http://www.w3.org/2000/svg" width="141" height="100" fill="none" xmlns:v="https://vecta.io/nano"><path d="M8.437 55.467v-4.081h8.578v-2.52H8.437v-3.32h9.231V43H5v14.987h13.008v-2.52H8.437zM31.315 43v10.013L24.313 43h-3.352v14.987h3.195V48.21l6.902 9.777h3.465V43h-3.209z" fill="#000"/><path d="M36.953 43v2.546h5.084v12.441h3.437V45.546h5.056V43H36.953zm29.112 12.074c-.824-1.181-1.477-1.995-1.96-2.441-.483-.459-1.094-.879-1.846-1.247 1.505-.197 2.641-.656 3.38-1.378.753-.748 1.136-1.667 1.136-2.795a3.97 3.97 0 0 0-2.755-3.793c-.824-.289-2.159-.42-3.976-.42h-7.257v14.987h3.437V51.74h.696c.809 0 1.392.053 1.747.171.369.118.71.315 1.037.63.327.302.923 1.05 1.803 2.205L64.006 58h4.133l-2.073-2.926zm-7.271-5.735h-2.556v-3.793h2.698l2.514.052c.554.066.994.276 1.306.578.313.315.469.722.469 1.233 0 .459-.114.827-.369 1.129-.227.289-.54.512-.966.63-.412.105-1.449.171-3.096.171zM85.435 58l-6.859-15h-3.635l-6.675 14.987h7.101v-1.706c0-.223.17-.315.341-.236.668.315 1.321.315 2.002 0 .199-.079.341.013.341.236v1.706h7.385V58zm-7.47-2.992c-.71.63-1.591.748-2.499.013-.071.066-.156.118-.227.197l-.866.774c-.312.249-.696.118-.795-.276-.014-.066-.014-.131-.043-.197l-.383-1.693v-.341c.099-.551.44-.945.866-1.247.071-.066.156-.118.213-.184s.114-.171.114-.249c.014-2.126.767-3.911 2.343-5.302h.028c.17.157.369.289.525.459 1.179 1.352 1.832 2.913 1.803 4.777 0 .157.057.249.17.354.44.341.88.669 1.037 1.26v.604l-.341 1.667c-.099.512-.483.643-.866.315l-1.079-.932zm19.968-2.585c-.284 1.063-.738 1.85-1.377 2.336-.639.512-1.392.748-2.286.748-1.207 0-2.173-.394-2.94-1.181-.739-.761-1.122-2.073-1.122-3.911 0-1.732.369-2.966 1.136-3.753.767-.761 1.775-1.155 2.996-1.155.881 0 1.633.223 2.258.656.639.446 1.022 1.05 1.236 1.798l3.309-.696c-.398-1.155-.951-2.06-1.69-2.677C98.174 43.525 96.513 43 94.51 43c-2.329 0-4.189.669-5.624 2.008-1.42 1.339-2.116 3.215-2.116 5.617 0 2.283.71 4.095 2.116 5.407C90.307 57.357 92.11 58 94.297 58c1.775 0 3.238-.381 4.388-1.142 1.15-.787 1.974-1.955 2.471-3.543l-3.223-.892zm15.11-3.583L119.49 43h-4.658l-6.959 6.667V43h-3.465v14.987h3.465v-4.528l2.784-2.493L115.372 58h4.459l-6.788-9.16zm21.884 6.234c-.824-1.181-1.477-1.995-1.96-2.441-.497-.459-1.122-.879-1.846-1.247 1.505-.197 2.613-.656 3.365-1.378.767-.748 1.136-1.667 1.136-2.795a3.97 3.97 0 0 0-.752-2.362 3.83 3.83 0 0 0-1.988-1.431c-.824-.289-2.159-.42-3.977-.42h-7.271v14.987h3.465V51.74h.696c.795 0 1.364.053 1.733.171a2.6 2.6 0 0 1 1.036.63c.327.302.938 1.05 1.832 2.205l2.5 3.255h4.118l-2.087-2.926zm-7.271-5.735h-2.557v-3.793h2.699l2.513.052c.554.066.98.276 1.293.578.312.315.468.722.468 1.233 0 .459-.113.827-.341 1.129-.227.289-.554.512-.965.63-.441.105-1.463.171-3.11.171z" fill="#c60000"/><defs><clipPath ><path fill="#fff" transform="translate(5 43)" d="M0 0h132v15H0z"/></clipPath></defs></svg>