<svg
  width="50"
  height="24"
  viewBox="0 0 50 24"
  fill="none"
  xmlns="http://www.w3.org/2000/svg"
>
  <path
    d="M36.615 21.8262C36.615 22.1588 36.615 22.4101 36.615 22.6613C36.615 22.9125 36.6239 23.1602 36.6033 23.4129C36.5407 23.4302 36.4769 23.4422 36.4125 23.4489C35.3639 23.4489 34.3153 23.4489 33.2667 23.4489C33.2224 23.4431 33.1789 23.4315 33.1374 23.4143C33.1239 23.3792 33.1145 23.3424 33.1094 23.3049C33.1094 15.6807 33.1094 8.05621 33.1094 0.431509C33.114 0.379735 33.1227 0.328451 33.1354 0.27817C33.188 0.260067 33.2424 0.247763 33.2974 0.241455C34.3338 0.241455 35.3701 0.241455 36.4064 0.241455C36.4561 0.245648 36.5055 0.253587 36.5541 0.265212C36.5739 0.33104 36.5885 0.398454 36.5979 0.466784C36.6054 0.574049 36.5979 0.682754 36.5979 0.790739V7.83928C36.5979 7.96814 36.6047 8.09628 36.6081 8.23522C36.6492 8.23446 36.6899 8.22767 36.7292 8.21507C36.769 8.1925 36.8054 8.16387 36.8372 8.13012C37.8966 7.05963 39.1706 6.47867 40.6054 6.25838C42.3356 5.99778 43.9865 6.26558 45.5499 7.08986C46.8999 7.80257 47.9298 8.88529 48.717 10.2286C49.4237 11.4382 49.8501 12.806 49.9616 14.2212C50.1203 16.0742 49.8016 17.8286 48.97 19.4678C47.9319 21.5123 46.3329 22.8564 44.2423 23.5605C43.4094 23.8525 42.5365 23.9984 41.6586 23.9924C40.5729 23.9742 39.5055 23.695 38.538 23.176C37.9593 22.8653 37.4139 22.4903 36.9111 22.0573C36.8345 21.9932 36.7531 21.9342 36.615 21.8262ZM46.3863 15.0282C46.394 14.5549 46.3394 14.0827 46.2242 13.6251C45.7927 11.9693 44.8435 10.7858 43.3191 10.1458C42.4771 9.79624 41.5581 9.70562 40.669 9.88451C39.0708 10.1854 37.8966 11.1083 37.1607 12.6259C36.6907 13.5944 36.5197 14.6932 36.6717 15.769C36.8769 17.3261 37.5683 18.573 38.815 19.4477C39.8408 20.1676 40.9788 20.4231 42.2009 20.2475C43.7581 20.0229 44.9365 19.1914 45.7277 17.766C46.1921 16.9302 46.3952 16.0152 46.3863 15.0282Z"
    fill="#372583"
  />
  <path
    d="M15.8205 19.0501C15.7521 19.2164 15.7042 19.3503 15.6447 19.4777C15.114 20.608 14.3453 21.5265 13.3879 22.2702C12.2668 23.148 10.946 23.7 9.55816 23.8705C8.11175 24.0534 6.68585 23.9468 5.32698 23.3781C2.88073 22.3559 1.25993 20.4985 0.433116 17.8759C0.0643095 16.6862 -0.0711008 15.43 0.0350965 14.1836C0.308649 10.6892 2.53195 7.86286 5.22166 6.74917C5.96589 6.44863 6.74741 6.26267 7.54207 6.19701C8.14329 6.13557 8.74886 6.13822 9.34957 6.20493C11.566 6.46481 13.4187 7.43668 14.8083 9.30913C15.095 9.69787 15.3361 10.1216 15.5264 10.5711C15.5818 10.7007 15.6269 10.836 15.6816 10.9807C15.6301 11.0301 15.5755 11.0758 15.5182 11.1175C14.6519 11.6488 13.7857 12.1784 12.9194 12.7063C12.8624 12.7372 12.8037 12.7646 12.7437 12.7884C12.6247 12.7107 12.6008 12.5868 12.5515 12.4825C12.3487 12.0391 12.0858 11.629 11.7712 11.2651C11.1304 10.5344 10.3289 10.1046 9.41454 9.90737C8.64161 9.73878 7.84146 9.76866 7.08182 9.99448C6.01418 10.2958 5.08725 10.9959 4.47418 11.9641C3.92542 12.8183 3.62008 13.8199 3.59415 14.8507C3.56822 15.8816 3.82278 16.8988 4.32783 17.7823C5.04112 19.0112 6.07309 19.7772 7.4094 20.0911C8.18014 20.2725 8.94403 20.2768 9.70109 20.0191C10.2102 19.8433 10.6863 19.5754 11.1078 19.2272C11.6699 18.756 12.1699 18.2082 12.5946 17.5981C12.676 17.4843 12.7587 17.372 12.8428 17.2568C12.8926 17.267 12.9412 17.2827 12.9878 17.3036C13.92 17.8759 14.8514 18.4511 15.8205 19.0501Z"
    fill="#372583"
  />
  <path
    d="M20.5525 23.4404C20.5032 23.4559 20.4526 23.4668 20.4014 23.4728C19.3527 23.4728 18.3051 23.4728 17.2587 23.4728C17.2097 23.467 17.1614 23.4564 17.1144 23.4411C17.0951 23.374 17.0811 23.3054 17.0726 23.2359C17.0651 23.1049 17.0685 22.9724 17.0685 22.8407C17.0685 17.4822 17.0685 12.1245 17.0685 6.7675C17.0685 6.61489 17.0357 6.45435 17.1232 6.31541C17.4153 6.26717 20.2174 6.26933 20.5197 6.32045C20.5363 6.39603 20.5478 6.47278 20.5539 6.55009C20.5573 6.88557 20.5539 7.22104 20.5539 7.55795V7.90639C20.6284 7.96758 20.6702 7.91934 20.7105 7.88047C21.0301 7.57069 21.3802 7.29773 21.7549 7.06626C22.396 6.6765 23.1057 6.42791 23.8409 6.33556C24.2139 6.28824 24.5898 6.27139 24.9653 6.28517C25.0511 6.29255 25.1363 6.30578 25.2204 6.32477C25.2373 6.36411 25.2497 6.40543 25.2573 6.44787C25.2601 7.59971 25.2612 8.75155 25.2608 9.90339C25.2573 9.94844 25.2498 9.99304 25.2382 10.0366C25.1247 10.1388 24.9933 10.1042 24.8723 10.1179C24.4428 10.1654 24.0112 10.1978 23.5837 10.2619C23.1546 10.3286 22.7405 10.4767 22.3615 10.6989C21.4758 11.2086 20.9506 11.9947 20.7611 13.0342C20.7223 13.2702 20.6974 13.5084 20.6866 13.7476C20.5895 15.3156 20.6127 16.8864 20.6018 18.4565C20.5922 19.7749 20.5856 21.0933 20.5819 22.4116C20.5819 22.6636 20.5888 22.9156 20.586 23.1668C20.5797 23.2586 20.5685 23.3499 20.5525 23.4404Z"
    fill="#372583"
  />
  <path
    d="M30.1867 23.443C30.0691 23.4574 29.9918 23.4725 29.9131 23.4754C28.8052 23.5085 27.0673 23.4898 26.7581 23.4408C26.7398 23.3765 26.7261 23.3108 26.7171 23.2443C26.7089 23.1493 26.713 23.0528 26.713 22.9563V6.80971C26.713 6.64414 26.6993 6.4764 26.7424 6.3209C27.0283 6.26979 29.8201 6.26619 30.1545 6.31586C30.1706 6.37932 30.1829 6.44375 30.1915 6.5088C30.1983 6.59158 30.1915 6.67581 30.1915 6.76004C30.1915 12.178 30.1915 17.5962 30.1915 23.0146C30.1949 23.1449 30.1901 23.276 30.1867 23.443Z"
    fill="#372583"
  />
  <path
    d="M28.4777 -0.00323737C29.7396 -0.0190752 30.7026 1.08741 30.6951 2.39907C30.6938 2.70789 30.6344 3.01339 30.5203 3.29789C30.4061 3.58238 30.2395 3.84022 30.03 4.05647C29.8205 4.27273 29.5724 4.44311 29.3 4.55775C29.0275 4.67239 28.7362 4.72901 28.4428 4.72434C27.3991 4.71499 26.2296 3.94757 26.2344 2.36163C26.2392 0.870721 27.3184 -0.0320334 28.4777 -0.00323737Z"
    fill="#372583"
  />
</svg>