<svg width="78" height="24" viewBox="0 0 78 24" fill="none" xmlns="http://www.w3.org/2000/svg">
<rect width="78" height="24" rx="12" fill="#585858"/>
<mask id="mask0_3_528" style="mask-type:luminance" maskUnits="userSpaceOnUse" x="19" y="4" width="41" height="16">
<path d="M59.9749 4H19V20H59.9749V4Z" fill="white"/>
</mask>
<g mask="url(#mask0_3_528)">
<path d="M23.5209 19.9997C22.8211 19.9997 22.3934 19.6469 22.3934 19.0744C22.3934 18.5585 22.7378 17.8645 23.5431 17.0873C24.6446 16.0222 26.0072 15.1901 27.1791 14.3513C26.4608 13.9302 25.4092 13.847 24.2984 13.847C23.5912 13.847 22.8563 13.8803 22.1694 13.8803C20.7791 13.8803 19.5721 13.7438 19.1259 12.9234C19.0407 12.7669 19 12.5872 19 12.3925C19 10.1873 24.0966 5.79376 28.0177 5.79376C29.3729 5.79376 29.9634 6.35794 29.9634 7.17841C29.9634 8.25352 28.9471 9.76964 27.3068 11.0345C26.333 11.785 25.0945 12.4341 24.7113 12.4341C24.3281 12.4341 24.7872 11.825 25.4148 11.775C25.9035 11.7351 26.6959 11.096 27.0532 10.8015C28.4676 9.63981 29.545 8.17529 29.545 7.20172C29.545 6.57096 29.0915 6.14824 27.9862 6.14824C24.2966 6.14824 19.6591 10.6916 19.6591 12.3542C19.6591 12.4857 19.6887 12.6005 19.7498 12.692C20.0756 13.1813 21.0272 13.2645 22.1954 13.2645C22.8026 13.2645 23.4672 13.2412 24.1318 13.2412C25.5055 13.2412 26.8829 13.3377 27.7511 13.9286C28.9045 13.0532 30.193 11.7967 31.2038 10.402C31.1409 9.50501 31.0724 8.54144 31.0724 7.61444C31.0724 7.20504 31.0853 6.80063 31.1186 6.41452C31.2649 4.73198 31.8666 3.99805 32.4238 3.99805C32.9811 3.99805 33.4679 4.70535 33.4679 5.88862C33.4679 6.96206 33.0625 8.42992 31.9295 10.1191C32.0128 11.5886 32.0924 13.2645 32.0795 14.9121C32.6497 13.5941 33.5772 12.3925 34.4399 12.3925C35.7728 12.3925 35.3618 14.8872 36.8355 14.8872C37.6056 14.8872 38.5202 14.1433 39.0089 13.3378C39.1367 13.1264 39.3014 12.8817 39.3829 12.9167C39.4236 12.935 39.4384 12.97 39.4384 13.0166C39.4384 13.1231 39.3569 13.2862 39.281 13.4243C38.5794 14.7241 37.5927 15.2466 36.7466 15.2466C34.7935 15.2466 34.9564 12.9334 34.301 12.9334C33.6457 12.9334 32.1998 15.1002 31.9962 16.5914C31.9666 16.816 31.7759 16.9142 31.6129 16.8559C31.3389 16.7611 31.2871 16.6047 31.2871 16.4399C31.2871 16.3684 31.2964 16.2951 31.3019 16.2269C31.3593 15.5279 31.3834 14.8556 31.3834 14.2065C31.3834 13.1031 31.3167 12.0613 31.2464 11.0511C30.293 12.2493 29.1451 13.3294 28.0307 14.1499C28.0899 14.2065 28.1454 14.2664 28.1973 14.3296C28.4509 14.6392 28.5712 15.0004 28.5712 15.3964C28.5712 16.2702 27.977 17.3053 26.8995 18.2856C25.5647 19.5004 24.3503 19.998 23.5172 19.998L23.5209 19.9997ZM23.5801 19.5903C24.2762 19.5903 25.4 19.0894 26.6033 17.9344C27.5586 17.0157 27.977 16.2235 27.977 15.5911C27.977 15.2383 27.8474 14.9338 27.6104 14.6841C27.5697 14.6409 27.5253 14.6026 27.479 14.5626C26.4848 15.2716 24.9538 16.2336 23.8393 17.3686C23.1562 18.0659 22.8655 18.6284 22.8655 19.0145C22.8655 19.4006 23.1358 19.592 23.5801 19.592V19.5903ZM31.8888 9.36355C32.72 7.94895 32.994 6.71076 32.994 5.82039C32.994 4.93002 32.7089 4.36584 32.4405 4.36584C32.1035 4.36584 31.7536 5.11142 31.7536 6.73406C31.7536 7.79918 31.861 8.91586 31.8888 9.36355Z" fill="white"/>
<path d="M42.5707 15.8045C41.5562 15.8011 41.3692 13.9189 41.3655 13.0036C41.3655 12.8355 41.3655 12.7439 41.3396 12.7439C41.3192 12.7439 41.2803 12.8138 41.2118 12.9636C40.8953 13.6509 40.3639 14.7027 39.6864 14.7027C39.1865 14.7027 38.9755 14.3017 38.9755 13.8107C38.9755 13.2798 39.2198 12.6141 39.6123 12.1065C39.9826 11.6272 40.5213 11.306 40.9693 11.306C41.197 11.306 41.4025 11.3893 41.5506 11.5773C41.6228 11.6705 41.645 11.802 41.5636 11.8952C41.5081 11.9584 41.4544 11.9817 41.4007 11.9817C41.31 11.9817 41.2174 11.9151 41.1174 11.8652C41.0545 11.8336 40.9878 11.8186 40.923 11.8186C40.3528 11.8186 39.7549 12.9487 39.566 13.5578C39.5049 13.7541 39.479 13.9073 39.479 14.0204C39.479 14.2085 39.5512 14.29 39.6586 14.29C39.7752 14.29 39.9326 14.1952 40.0881 14.0321C40.3565 13.7491 40.6194 13.2699 40.8212 12.8438C41.0508 12.3578 41.3637 12.0799 41.621 12.0799C41.8783 12.0799 42.0801 12.3595 42.0875 12.9953C42.0931 13.4712 42.1227 15.3635 42.6503 15.3635C43.1409 15.3635 44.3609 13.7275 44.6127 13.3714C44.8404 13.0485 44.9645 12.927 45.0533 12.927C45.1051 12.927 45.1292 12.9553 45.1292 13.0086C45.1292 13.1001 45.057 13.2665 44.9181 13.4895C44.5331 14.1103 43.4167 15.8095 42.567 15.8061L42.5707 15.8045Z" fill="white"/>
<path d="M45.3368 15.2004C45.1072 15.2004 45.0572 14.9174 44.9887 14.6179C44.9295 14.3599 44.7777 13.601 44.7777 12.9969C44.7777 12.5292 44.8703 12.1731 45.1702 12.1731C45.4331 12.1731 45.4701 12.4127 45.4701 12.8271C45.4701 12.9986 45.4645 13.1999 45.4645 13.4279C45.4645 13.7941 45.4645 13.9289 45.4794 13.9289C45.4942 13.9289 45.533 13.7907 45.6071 13.6176C45.8959 12.9503 46.5235 12.0017 47.338 11.742C47.4288 11.7138 47.5102 11.7004 47.5806 11.7004C47.9027 11.7004 48.0193 11.9601 47.9231 12.1282C47.8601 12.238 47.7287 12.2746 47.6139 12.243C47.5676 12.2297 47.525 12.2247 47.4843 12.2247C47.3473 12.2247 47.2288 12.2896 47.0955 12.3695C46.1199 12.9603 45.7144 14.5014 45.6423 14.731C45.5516 15.0223 45.4701 15.202 45.3386 15.202L45.3368 15.2004Z" fill="white"/>
<path d="M51.8995 15.8045C50.885 15.8011 50.698 13.9189 50.6943 13.0036C50.6943 12.8355 50.6943 12.7439 50.6684 12.7439C50.648 12.7439 50.6091 12.8138 50.5406 12.9636C50.224 13.6509 49.6927 14.7027 49.0151 14.7027C48.5153 14.7027 48.3043 14.3017 48.3043 13.8107C48.3043 13.2798 48.5486 12.6141 48.9411 12.1065C49.3114 11.6272 49.8501 11.306 50.2981 11.306C50.5258 11.306 50.7313 11.3893 50.8796 11.5773C50.9517 11.6705 50.974 11.802 50.8923 11.8952C50.837 11.9584 50.7833 11.9817 50.7295 11.9817C50.6387 11.9817 50.5462 11.9151 50.4462 11.8652C50.3833 11.8336 50.3166 11.8186 50.2518 11.8186C49.6816 11.8186 49.0836 12.9487 48.8948 13.5578C48.8337 13.7541 48.806 13.9073 48.806 14.0204C48.806 14.2085 48.8782 14.29 48.9874 14.29C49.104 14.29 49.2614 14.1952 49.4169 14.0321C49.6853 13.7491 49.9482 13.2699 50.15 12.8438C50.3796 12.3578 50.6924 12.0799 50.9498 12.0799C51.2073 12.0799 51.4088 12.3595 51.4164 12.9953C51.4218 13.4712 51.4513 15.3635 51.9789 15.3635C52.4697 15.3635 53.6898 13.7275 53.9415 13.3714C54.1691 13.0485 54.2934 12.927 54.382 12.927C54.4339 12.927 54.458 12.9553 54.458 13.0086C54.458 13.1001 54.3859 13.2665 54.247 13.4895C53.8618 14.1103 52.7455 15.8095 51.8957 15.8061L51.8995 15.8045Z" fill="white"/>
<path d="M54.7304 15.1171C54.5915 15.1171 54.4714 14.9656 54.3824 14.701C54.2546 14.3233 54.2213 13.9505 54.2213 13.5627C54.2213 13.1283 54.2638 12.674 54.2638 12.1697C54.2638 12.0799 54.2623 12.005 54.2623 11.9417C54.2623 11.797 54.275 11.7154 54.3601 11.6438C54.5267 11.504 54.8766 11.6172 54.8766 12.3295C54.8766 12.6607 54.8267 13.0018 54.8267 13.4063C54.8267 13.5677 54.834 13.7374 54.8563 13.9222C54.8823 14.1369 54.9249 14.1502 55.0174 13.9771C55.3063 13.4462 55.532 12.7106 56.0208 12.7106C56.4356 12.7106 56.7168 13.1017 57.0483 13.4412C57.3261 13.7241 57.6185 13.9322 57.9999 13.9322C58.3998 13.9322 58.8997 13.7025 59.5827 13.0851C59.7458 12.9386 59.8402 12.8904 59.8974 12.8904C59.953 12.8904 59.9752 12.917 59.9752 12.9586C59.9752 13.0401 59.8882 13.1749 59.7938 13.2731C59.1664 13.9155 58.5571 14.3233 57.9443 14.3233C57.5388 14.3233 57.1316 14.1452 56.7149 13.7391C56.3761 13.4079 56.1858 13.2232 56.0319 13.2232C55.8005 13.2232 55.6505 13.6376 55.2027 14.5962C55.0339 14.959 54.8712 15.1188 54.7285 15.1188L54.7304 15.1171Z" fill="white"/>
<path d="M35.1251 9.43882H34.9567C34.8197 9.43882 34.7512 9.3889 34.7512 9.2907V8.00759C34.7512 7.8395 34.8234 7.71133 34.9659 7.62147C35.0844 7.54659 35.2251 7.5083 35.3899 7.5083H36.434V7.64144C36.434 7.7413 36.3655 7.79122 36.2285 7.79122H35.3936C35.3232 7.79122 35.264 7.80787 35.2158 7.8395C35.1566 7.87776 35.127 7.93436 35.127 8.00759V8.3321H36.434V8.46524C36.434 8.5651 36.3655 8.61336 36.2285 8.61336H35.127V9.43882H35.1251Z" fill="#F69320"/>
<path d="M37.2761 9.43874H37.1076C36.9706 9.43874 36.9021 9.3888 36.9021 9.2906V7.658C36.9021 7.55814 36.9706 7.50989 37.1076 7.50989H37.2761V9.4404V9.43874Z" fill="#F69320"/>
<path d="M38.1836 9.43874H38.0151C37.8782 9.43874 37.8096 9.3888 37.8096 9.2906V7.658C37.8096 7.55814 37.8782 7.50989 38.0151 7.50989H38.1892L39.4906 8.94777V7.658C39.4906 7.55814 39.5591 7.50989 39.698 7.50989H39.8646V9.4404H39.698C39.5573 9.4404 39.4499 9.40212 39.3796 9.32389L38.1817 8.00083V9.43874H38.1836Z" fill="#F69320"/>
<path d="M41.8179 8.88954H40.7367L40.4794 9.43871H40.248C40.1961 9.43871 40.161 9.42539 40.1425 9.39879C40.1276 9.37548 40.1276 9.34554 40.1425 9.31056L40.9237 7.64468C40.9459 7.59642 40.9904 7.56145 41.0589 7.53651C41.1273 7.51153 41.1996 7.49988 41.2773 7.49988C41.355 7.49988 41.4254 7.51153 41.4939 7.53651C41.5624 7.56145 41.6068 7.59642 41.6309 7.64468L42.4733 9.43871H42.2196C42.1234 9.43871 42.0586 9.40376 42.0252 9.33222L41.8179 8.88954ZM41.318 7.82274H41.2366L40.87 8.60659H41.6864L41.3199 7.82274H41.318Z" fill="#F69320"/>
<path d="M43.1155 9.43874H42.9471C42.8101 9.43874 42.7416 9.3888 42.7416 9.2906V7.658C42.7416 7.55814 42.8101 7.50989 42.9471 7.50989H43.1211L44.4226 8.94777V7.658C44.4226 7.55814 44.4911 7.50989 44.6299 7.50989H44.7965V9.4404H44.6299C44.4892 9.4404 44.3818 9.40212 44.3115 9.32389L43.1137 8.00083V9.43874H43.1155Z" fill="#F69320"/>
<path d="M45.6371 8.45679V8.79462C45.6371 8.90114 45.6964 8.99434 45.8148 9.07422C45.937 9.15577 46.0888 9.19739 46.2666 9.19739C46.4443 9.19739 46.5942 9.15577 46.7183 9.07422C46.7423 9.05759 46.7627 9.04094 46.7794 9.02597C46.8497 8.95939 46.9367 8.94608 47.0404 8.98437L47.1978 9.04428C47.1441 9.13579 47.0663 9.21568 46.9645 9.28394C46.7701 9.41374 46.5368 9.47865 46.2666 9.47865C45.9963 9.47865 45.7593 9.41374 45.5668 9.28394C45.365 9.14911 45.265 8.98437 45.265 8.79297V8.14559C45.265 7.95254 45.365 7.78942 45.5668 7.65462C45.7611 7.52317 45.9944 7.45825 46.2666 7.45825C46.5387 7.45825 46.7701 7.52317 46.9645 7.65462C47.0663 7.72288 47.1441 7.80274 47.1978 7.89262L47.0404 7.95254C46.9386 7.99414 46.8516 7.98082 46.7794 7.91259C46.7627 7.89762 46.7423 7.88262 46.7183 7.86434C46.5942 7.78111 46.4443 7.73951 46.2666 7.73951C46.0888 7.73951 45.937 7.78111 45.8148 7.86434C45.6964 7.94422 45.6371 8.03739 45.6371 8.14391V8.45348V8.45679Z" fill="#F69320"/>
<path d="M47.9823 8.61336V8.93956C47.9823 9.01279 48.0119 9.06936 48.073 9.1093C48.1212 9.14093 48.1804 9.15756 48.2489 9.15756H49.0857C49.2227 9.15756 49.2912 9.2075 49.2912 9.30567V9.43882H48.2452C48.0804 9.43882 47.9397 9.40221 47.8212 9.32733C47.6787 9.23744 47.6065 9.10764 47.6065 8.93956V8.00759C47.6065 7.8395 47.6787 7.71133 47.8212 7.62147C47.9397 7.54659 48.0804 7.5083 48.2452 7.5083H49.2912V7.64144C49.2912 7.7413 49.2227 7.79122 49.0857 7.79122H48.2489C48.1804 7.79122 48.1212 7.80787 48.073 7.8395C48.0119 7.87942 47.9823 7.93602 47.9823 8.00759V8.3321H49.2912V8.46524C49.2912 8.5651 49.2227 8.61336 49.0857 8.61336H47.9823Z" fill="#F69320"/>
<path d="M51.2445 7.50659V8.89291C51.2445 8.97279 51.2909 9.04271 51.3852 9.10093C51.4908 9.16585 51.6201 9.19913 51.7701 9.19913C51.9202 9.19913 52.0479 9.16585 52.1534 9.10093C52.2478 9.04271 52.2942 8.97279 52.2942 8.89291V7.65639C52.2942 7.55653 52.3626 7.50828 52.5015 7.50828H52.668V8.89459C52.668 8.97613 52.7163 9.04436 52.8107 9.10262C52.9143 9.16751 53.0421 9.20079 53.194 9.20079C53.3456 9.20079 53.4715 9.16751 53.5789 9.10262C53.6733 9.04271 53.7197 8.97448 53.7197 8.89459V7.65805C53.7197 7.55819 53.788 7.50993 53.925 7.50993H54.0935V8.89625C54.0935 9.06433 54.001 9.20413 53.816 9.32062C53.6437 9.43048 53.4365 9.48539 53.194 9.48539C52.9512 9.48539 52.7421 9.43048 52.5717 9.32062C52.5367 9.29899 52.5072 9.27736 52.4811 9.25573C52.4551 9.27736 52.4236 9.29899 52.3905 9.32062C52.2164 9.43048 52.0091 9.48539 51.7682 9.48539C51.5276 9.48539 51.3166 9.43048 51.1462 9.32062C50.9613 9.20579 50.8688 9.06433 50.8688 8.89625V7.65971C50.8688 7.55985 50.9371 7.51159 51.0741 7.51159H51.2425L51.2445 7.50659Z" fill="#F69320"/>
<path d="M54.984 9.43874H54.8156C54.6786 9.43874 54.6099 9.3888 54.6099 9.2906V7.658C54.6099 7.55814 54.6786 7.50989 54.8156 7.50989H54.984V9.4404V9.43874Z" fill="#F69320"/>
<path d="M55.3486 7.79122V7.65642C55.3486 7.55656 55.4172 7.5083 55.5542 7.5083H57.0315V7.64144C57.0315 7.7413 56.9631 7.79122 56.8258 7.79122H56.378V9.43882H56.2096C56.0726 9.43882 56.0039 9.3889 56.0039 9.2907V7.7929H55.3486V7.79122Z" fill="#F69320"/>
<path d="M57.7742 9.43874H57.6058C57.4688 9.43874 57.4001 9.3888 57.4001 9.2906V7.658C57.4001 7.55814 57.4688 7.50989 57.6058 7.50989H57.7742V8.33369H58.9499V7.65966C58.9499 7.5598 59.0182 7.51154 59.1552 7.51154H59.3237V9.44206H59.1552C59.0182 9.44206 58.9499 9.39214 58.9499 9.29394V8.6166H57.7742V9.44206V9.43874Z" fill="#F69320"/>
</g>
</svg>
