<svg width="1440" height="225" viewBox="0 0 1440 225" fill="none" xmlns="http://www.w3.org/2000/svg">
<path d="M1371.8 228.209H1275.05V90.4417H1371.8V228.209Z" fill="#FFBACA"/>
<path d="M1241.09 228.209H1275.06V90.4417H1241.09V228.209Z" fill="#CE7C91"/>
<path d="M1390.7 331.789H1264.56V155.579H1390.7V331.789Z" fill="#FFBACA"/>
<path d="M1221.12 331.789H1264.56V155.579H1221.12V331.789Z" fill="#CE7C91"/>
<path d="M1371.8 155.58H1257.27V153.254H1371.8V155.58Z" fill="#CE7C91"/>
<path d="M1284.76 106.857H1295.68V99.9166H1284.76V106.857Z" fill="#EA94AB"/>
<path d="M1284.76 143.777H1295.68V136.837H1284.76V143.777Z" fill="#EA94AB"/>
<path d="M1284.76 134.764H1295.68V108.928H1284.76V134.764Z" fill="#EA94AB"/>
<path d="M1351.09 106.857H1362.01V99.9166H1351.09V106.857Z" fill="#EA94AB"/>
<path d="M1351.09 143.777H1362.01V136.837H1351.09V143.777Z" fill="#EA94AB"/>
<path d="M1351.09 134.764H1362.01V108.928H1351.09V134.764Z" fill="#EA94AB"/>
<path d="M1298.76 106.857H1321.85V99.9166H1298.76V106.857Z" fill="#EA94AB"/>
<path d="M1298.76 143.777H1321.85V136.837H1298.76V143.777Z" fill="#EA94AB"/>
<path d="M1298.76 134.764H1321.85V108.928H1298.76V134.764Z" fill="#EA94AB"/>
<path d="M1324.92 106.857H1348.01V99.9166H1324.92V106.857Z" fill="#EA94AB"/>
<path d="M1324.92 143.777H1348.01V136.837H1324.92V143.777Z" fill="#EA94AB"/>
<path d="M1324.92 134.764H1348.01V108.928H1324.92V134.764Z" fill="#EA94AB"/>
<path d="M1273.14 193.953H1284.09V173.598H1273.14V193.953Z" fill="#EA94AB"/>
<path d="M1293.09 193.953H1304.04V173.598H1293.09V193.953Z" fill="#EA94AB"/>
<path d="M1313.03 193.953H1323.99V173.598H1313.03V193.953Z" fill="#EA94AB"/>
<path d="M1332.97 193.953H1343.92V173.598H1332.97V193.953Z" fill="#EA94AB"/>
<path d="M1352.91 193.953H1363.86V173.598H1352.91V193.953Z" fill="#EA94AB"/>
<path d="M1372.85 193.953H1383.81V173.598H1372.85V193.953Z" fill="#EA94AB"/>
<path d="M1273.14 227.18H1284.09V206.825H1273.14V227.18Z" fill="#EA94AB"/>
<path d="M1293.09 227.18H1304.04V206.825H1293.09V227.18Z" fill="#FFDFE6"/>
<path d="M1313.03 227.18H1323.99V206.825H1313.03V227.18Z" fill="#FFDFE6"/>
<path d="M1332.97 227.18H1343.92V206.825H1332.97V227.18Z" fill="#EA94AB"/>
<path d="M1352.91 227.18H1363.86V206.825H1352.91V227.18Z" fill="#EA94AB"/>
<path d="M1372.85 227.18H1383.81V206.825H1372.85V227.18Z" fill="#EA94AB"/>
<path d="M1372.85 90.4414H1238.45V79.8057H1372.85V90.4414Z" fill="#B55E7C"/>
<path d="M1127.21 515.699H1002.74V70.9967H1127.21V515.699Z" fill="#FFBACA"/>
<path d="M964.039 515.699H1002.74V70.9967H964.039V515.699Z" fill="#CE7C91"/>
<path d="M1030.98 62.1094H995.875V47.296H1030.98V62.1094Z" fill="#FFCFDD"/>
<path d="M984.961 62.1094H995.876V47.296H984.961V62.1094Z" fill="#EA94AB"/>
<path d="M1116.75 62.1094H1081.64V47.296H1116.75V62.1094Z" fill="#FFCFDD"/>
<path d="M1070.73 62.1094H1081.65V47.296H1070.73V62.1094Z" fill="#EA94AB"/>
<path d="M1131.4 72.6914H958.812V62.1082H1131.4V72.6914Z" fill="#B55E7C"/>
<path d="M1116.75 100.859H1002.74V87.1201H1116.75V100.859Z" fill="#EA94AB"/>
<path d="M1116.75 127.094H1002.74V113.354H1116.75V127.094Z" fill="#EA94AB"/>
<path d="M1116.75 153.322H1002.74V139.583H1116.75V153.322Z" fill="#EA94AB"/>
<path d="M1116.75 179.553H1002.74V165.813H1116.75V179.553Z" fill="#EA94AB"/>
<path d="M1116.75 205.783H1002.74V192.044H1116.75V205.783Z" fill="#EA94AB"/>
<path d="M1116.75 232.014H1002.74V218.274H1116.75V232.014Z" fill="#EA94AB"/>
<path d="M1116.75 232.014H1083.28V218.274H1116.75V232.014Z" fill="#FFCFDD"/>
<path d="M1040.39 127.094H1026.8V113.354H1040.39V127.094Z" fill="#FFCFDD"/>
<path d="M1100.02 127.094H1086.42V113.354H1100.02V127.094Z" fill="#FFCFDD"/>
<path d="M1083.28 127.094H1069.69V113.354H1083.28V127.094Z" fill="#FFCFDD"/>
<path d="M975.547 100.859H1002.74V87.1201H975.547V100.859Z" fill="#B55E7C"/>
<path d="M975.547 127.094H1002.74V113.354H975.547V127.094Z" fill="#B55E7C"/>
<path d="M975.547 153.322H1002.74V139.583H975.547V153.322Z" fill="#B55E7C"/>
<path d="M975.547 179.553H1002.74V165.813H975.547V179.553Z" fill="#B55E7C"/>
<path d="M975.547 205.783H1002.74V192.044H975.547V205.783Z" fill="#B55E7C"/>
<path d="M975.547 232.014H1002.74V218.274H975.547V232.014Z" fill="#B55E7C"/>
<path d="M745.442 217.889H648.703V85.2816H745.442V217.889Z" fill="#FFBACA"/>
<path d="M614.742 217.889H648.702V85.2816H614.742V217.889Z" fill="#CE7C91"/>
<path d="M764.339 317.59H638.203V147.98H764.339V317.59Z" fill="#FFBACA"/>
<path d="M594.766 317.59H638.203V147.98H594.766V317.59Z" fill="#CE7C91"/>
<path d="M745.442 147.98H630.906V145.741H745.442V147.98Z" fill="#CE7C91"/>
<path d="M658.406 101.084H669.33V94.404H658.406V101.084Z" fill="#EA94AB"/>
<path d="M658.406 136.621H669.33V129.941H658.406V136.621Z" fill="#EA94AB"/>
<path d="M658.406 127.945H669.33V103.079H658.406V127.945Z" fill="#EA94AB"/>
<path d="M724.734 101.084H735.658V94.404H724.734V101.084Z" fill="#EA94AB"/>
<path d="M724.734 136.621H735.658V129.941H724.734V136.621Z" fill="#EA94AB"/>
<path d="M724.734 127.945H735.658V103.079H724.734V127.945Z" fill="#EA94AB"/>
<path d="M672.406 101.084H695.495V94.404H672.406V101.084Z" fill="#EA94AB"/>
<path d="M672.406 136.621H695.495V129.941H672.406V136.621Z" fill="#EA94AB"/>
<path d="M672.406 127.945H695.495V103.079H672.406V127.945Z" fill="#EA94AB"/>
<path d="M698.562 101.084H721.652V94.404H698.562V101.084Z" fill="#EA94AB"/>
<path d="M698.562 136.621H721.652V129.941H698.562V136.621Z" fill="#EA94AB"/>
<path d="M698.562 127.945H721.652V103.079H698.562V127.945Z" fill="#EA94AB"/>
<path d="M646.789 184.918H657.742V165.325H646.789V184.918Z" fill="#EA94AB"/>
<path d="M666.734 184.918H677.687V165.325H666.734V184.918Z" fill="#EA94AB"/>
<path d="M686.672 184.918H697.626V165.325H686.672V184.918Z" fill="#EA94AB"/>
<path d="M706.609 184.918H717.564V165.325H706.609V184.918Z" fill="#EA94AB"/>
<path d="M726.555 184.918H737.507V165.325H726.555V184.918Z" fill="#EA94AB"/>
<path d="M746.5 184.918H757.452V165.325H746.5V184.918Z" fill="#EA94AB"/>
<path d="M646.789 216.898H657.742V197.306H646.789V216.898Z" fill="#EA94AB"/>
<path d="M666.734 216.898H677.687V197.306H666.734V216.898Z" fill="#FFDFE6"/>
<path d="M686.672 216.898H697.626V197.306H686.672V216.898Z" fill="#FFDFE6"/>
<path d="M706.609 216.898H717.564V197.306H706.609V216.898Z" fill="#EA94AB"/>
<path d="M726.555 216.898H737.507V197.306H726.555V216.898Z" fill="#EA94AB"/>
<path d="M746.5 216.898H757.452V197.306H746.5V216.898Z" fill="#EA94AB"/>
<path d="M746.495 85.2832H612.094V75.0474H746.495V85.2832Z" fill="#B55E7C"/>
<path d="M576.081 370.939H451.609V55.6895H576.081V370.939Z" fill="#FFBACA"/>
<path d="M412.906 370.94H451.609V55.6897H412.906V370.94Z" fill="#CE7C91"/>
<path d="M479.849 47.0918H444.742V32.7629H479.849V47.0918Z" fill="#FFCFDD"/>
<path d="M433.828 47.0918H444.743V32.7629H433.828V47.0918Z" fill="#EA94AB"/>
<path d="M565.623 47.0918H530.516V32.7629H565.623V47.0918Z" fill="#FFCFDD"/>
<path d="M519.594 47.0918H530.509V32.7629H519.594V47.0918Z" fill="#EA94AB"/>
<path d="M580.258 57.3281H407.672V47.0923H580.258V57.3281Z" fill="#B55E7C"/>
<path d="M565.62 84.5762H451.609V71.2841H565.62V84.5762Z" fill="#EA94AB"/>
<path d="M565.62 109.951H451.609V96.6592H565.62V109.951Z" fill="#EA94AB"/>
<path d="M565.62 135.324H451.609V122.032H565.62V135.324Z" fill="#EA94AB"/>
<path d="M565.62 160.699H451.609V147.407H565.62V160.699Z" fill="#EA94AB"/>
<path d="M565.62 186.072H451.609V172.78H565.62V186.072Z" fill="#EA94AB"/>
<path d="M565.62 211.445H451.609V198.155H565.62V211.445Z" fill="#EA94AB"/>
<path d="M565.619 211.445H532.148V198.155H565.619V211.445Z" fill="#FFCFDD"/>
<path d="M565.62 236.818H451.609V223.528H565.62V236.818Z" fill="#EA94AB"/>
<path d="M489.269 109.951H475.672V96.6592H489.269V109.951Z" fill="#FFCFDD"/>
<path d="M548.878 109.951H535.281V96.6592H548.878V109.951Z" fill="#FFCFDD"/>
<path d="M532.144 109.951H518.547V96.6592H532.144V109.951Z" fill="#FFCFDD"/>
<path d="M424.406 84.5762H451.602V71.2841H424.406V84.5762Z" fill="#B55E7C"/>
<path d="M424.406 109.951H451.602V96.6592H424.406V109.951Z" fill="#B55E7C"/>
<path d="M424.406 135.324H451.602V122.032H424.406V135.324Z" fill="#B55E7C"/>
<path d="M424.406 160.699H451.602V147.407H424.406V160.699Z" fill="#B55E7C"/>
<path d="M424.406 186.072H451.602V172.78H424.406V186.072Z" fill="#B55E7C"/>
<path d="M424.406 211.445H451.602V198.155H424.406V211.445Z" fill="#B55E7C"/>
<path d="M424.406 236.818H451.602V223.528H424.406V236.818Z" fill="#B55E7C"/>
<path d="M278.1 515.389H133.5V112.656H278.1V515.389Z" fill="#FFBACA"/>
<path d="M84.2344 515.389H133.494V112.656H84.2344V515.389Z" fill="#CE7C91"/>
<path d="M131.926 105.31H81.0469V115.9H131.926H281.283V105.31H131.926Z" fill="#B55E7C"/>
<path d="M282.976 231.598H130.031V222.585H282.976V231.598Z" fill="#FFCFDD"/>
<path d="M77.9297 231.598H130.032V222.585H77.9297V231.598Z" fill="#BC647D"/>
<path d="M141.815 211.605H133.5V187.8H141.815V211.605Z" fill="#CE7C91"/>
<path d="M133.494 211.605H124.281V187.8H133.494V211.605Z" fill="#B55E7C"/>
<path d="M120.763 211.605H96.8672V187.8H120.763V211.605Z" fill="#B55E7C"/>
<path d="M169.284 211.605H145.281V187.8H169.284V211.605Z" fill="#CE7C91"/>
<path d="M188.987 211.605H180.672V187.8H188.987V211.605Z" fill="#CE7C91"/>
<path d="M216.457 211.605H192.453V187.8H216.457V211.605Z" fill="#CE7C91"/>
<path d="M236.533 211.605H228.219V187.8H236.533V211.605Z" fill="#CE7C91"/>
<path d="M264.018 211.605H240.016V187.8H264.018V211.605Z" fill="#CE7C91"/>
<path d="M282.976 173.859H130.031V164.847H282.976V173.859Z" fill="#FFCFDD"/>
<path d="M77.9297 173.859H130.032V164.847H77.9297V173.859Z" fill="#BC647D"/>
<path d="M141.815 153.867H133.5V130.061H141.815V153.867Z" fill="#CE7C91"/>
<path d="M133.494 153.867H124.281V130.061H133.494V153.867Z" fill="#B55E7C"/>
<path d="M120.763 153.867H96.8672V130.061H120.763V153.867Z" fill="#B55E7C"/>
<path d="M169.284 153.867H145.281V130.061H169.284V153.867Z" fill="#CE7C91"/>
<path d="M188.987 153.867H180.672V130.061H188.987V153.867Z" fill="#CE7C91"/>
<path d="M216.457 153.867H192.453V130.061H216.457V153.867Z" fill="#CE7C91"/>
<path d="M236.533 153.867H228.219V130.061H236.533V153.867Z" fill="#CE7C91"/>
<path d="M264.018 153.867H240.016V130.061H264.018V153.867Z" fill="#CE7C91"/>
<mask id="mask0_397_60090" style="mask-type:luminance" maskUnits="userSpaceOnUse" x="0" y="-152" width="1440" height="848">
<path d="M0 -151.998H1440V695.061H0V-151.998Z" fill="white"/>
</mask>
<g mask="url(#mask0_397_60090)">
<path d="M1440 194.646H1326.47V515.549H1440V194.646Z" fill="white"/>
<path d="M1280.69 515.549H1326.47V194.646H1280.69V515.549Z" fill="#886BD4"/>
<path d="M1359.88 177.141H1318.34V162.554H1359.88V177.141Z" fill="white"/>
<path d="M1305.44 177.141H1318.35V162.554H1305.44V177.141Z" fill="#959BD9"/>
<path d="M1440 162.554H1419.83V177.141H1440V162.554Z" fill="white"/>
<path d="M1406.91 177.141H1419.82V162.554H1406.91V177.141Z" fill="#959BD9"/>
<path d="M1440 177.143H1274.5V194.646H1440V177.143Z" fill="#5B2F6B"/>
<path d="M1440 210.522H1326.47V224.051H1440V210.522Z" fill="#959BD9"/>
<path d="M1294.3 224.051H1326.47V210.522H1294.3V224.051Z" fill="#5B2F6B"/>
<path d="M1246.85 515.391H1102.25V113.361H1246.85V515.391Z" fill="white"/>
<path d="M1053 515.391H1102.26V113.361H1053V515.391Z" fill="#886BD4"/>
<path d="M1100.68 106.03H1049.8V116.602H1100.68H1250.04V106.03H1100.68Z" fill="#5B2F6B"/>
<path d="M1251.73 232.094H1098.78V223.096H1251.73V232.094Z" fill="#C9D0F7"/>
<path d="M1046.67 232.094H1098.77V223.096H1046.67V232.094Z" fill="#959BD9"/>
<path d="M1110.56 212.137H1102.25V188.373H1110.56V212.137Z" fill="#959BD9"/>
<path d="M1102.25 212.137H1093.04V188.373H1102.25V212.137Z" fill="#5B2F6B"/>
<path d="M1089.52 212.137H1065.62V188.373H1089.52V212.137Z" fill="#5B2F6B"/>
<path d="M1138.04 212.137H1114.04V188.373H1138.04V212.137Z" fill="#959BD9"/>
<path d="M1157.74 212.137H1149.42V188.373H1157.74V212.137Z" fill="#959BD9"/>
<path d="M1185.21 212.137H1161.2V188.373H1185.21V212.137Z" fill="#959BD9"/>
<path d="M1205.3 212.137H1196.98V188.373H1205.3V212.137Z" fill="#959BD9"/>
<path d="M1232.77 212.137H1208.77V188.373H1232.77V212.137Z" fill="#959BD9"/>
<path d="M1232.77 194.535H1102.25V192.839H1232.77V194.535Z" fill="#552F6D"/>
<path d="M1251.73 174.457H1098.78V165.46H1251.73V174.457Z" fill="#C9D0F7"/>
<path d="M1046.67 174.457H1098.77V165.46H1046.67V174.457Z" fill="#959BD9"/>
<path d="M1110.56 154.502H1102.25V130.739H1110.56V154.502Z" fill="#959BD9"/>
<path d="M1102.25 154.502H1093.04V130.739H1102.25V154.502Z" fill="#5B2F6B"/>
<path d="M1089.52 154.502H1065.62V130.739H1089.52V154.502Z" fill="#5B2F6B"/>
<path d="M1138.04 154.502H1114.04V130.739H1138.04V154.502Z" fill="#959BD9"/>
<path d="M1157.74 154.502H1149.42V130.739H1157.74V154.502Z" fill="#959BD9"/>
<path d="M1185.21 154.502H1161.2V130.739H1185.21V154.502Z" fill="#959BD9"/>
<path d="M1205.3 154.502H1196.98V130.739H1205.3V154.502Z" fill="#959BD9"/>
<path d="M1232.77 154.502H1208.77V130.739H1232.77V154.502Z" fill="#959BD9"/>
<path d="M1232.77 136.898H1102.25V135.203H1232.77V136.898Z" fill="#552F6D"/>
<path d="M983.307 515.391H844.445V145.236H983.307V515.391Z" fill="white"/>
<path d="M801.047 515.391H844.182V145.236H801.047V515.391Z" fill="#886BD4"/>
<path d="M974.894 138.361H853.875V99.0358H974.894V138.361Z" fill="white"/>
<path d="M816.25 138.361H853.878V99.0358H816.25V138.361Z" fill="#886BD4"/>
<path d="M963.981 82.8769H859.609V99.0371H963.981V82.8769Z" fill="white"/>
<path d="M827.164 82.8769H859.615V99.0371H827.164V82.8769Z" fill="#886BD4"/>
<path d="M881.232 136.494V121.549C881.232 117.246 877.532 113.725 873.011 113.725C868.491 113.725 864.789 117.246 864.789 121.549V136.494H881.232Z" fill="#BFC5EF"/>
<path d="M908.818 136.494V121.549C908.818 117.246 905.118 113.725 900.597 113.725C896.075 113.725 892.375 117.246 892.375 121.549V136.494H908.818Z" fill="#BFC5EF"/>
<path d="M963.982 136.494V121.549C963.982 117.246 960.282 113.725 955.761 113.725C951.239 113.725 947.539 117.246 947.539 121.549V136.494H963.982Z" fill="#BFC5EF"/>
<path d="M936.396 136.494V121.549C936.396 117.246 932.696 113.725 928.175 113.725C923.653 113.725 919.953 117.246 919.953 121.549V136.494H936.396Z" fill="#BFC5EF"/>
<path d="M986.395 145.238H798.312V136.497H986.395V145.238Z" fill="#5B2F6B"/>
<path d="M972.114 228.771H855.141V204.114H972.114V228.771Z" fill="#959BD9"/>
<path d="M972.121 228.771H929.734V204.114H972.121V228.771Z" fill="#BFC5EF"/>
<path d="M972.114 211.74H855.141V210.044H972.114V211.74Z" fill="#552F6D"/>
<path d="M871.058 228.771H869.352V204.115H871.058V228.771Z" fill="#552F6D"/>
<path d="M958.395 228.771H956.688V204.115H958.395V228.771Z" fill="#552F6D"/>
<path d="M898.87 228.771H897.164V204.115H898.87V228.771Z" fill="#552F6D"/>
<path d="M930.581 228.771H928.875V204.115H930.581V228.771Z" fill="#552F6D"/>
<path d="M972.114 184.555H855.141V159.897H972.114V184.555Z" fill="#959BD9"/>
<path d="M972.121 184.555H929.734V159.897H972.121V184.555Z" fill="#BFC5EF"/>
<path d="M972.114 167.525H855.141V165.831H972.114V167.525Z" fill="#552F6D"/>
<path d="M871.065 184.555H869.359V159.897H871.065V184.555Z" fill="#552F6D"/>
<path d="M958.395 184.555H956.688V159.897H958.395V184.555Z" fill="#552F6D"/>
<path d="M898.87 184.555H897.164V159.897H898.87V184.555Z" fill="#552F6D"/>
<path d="M930.581 184.555H928.875V159.897H930.581V184.555Z" fill="#552F6D"/>
<path d="M881.232 122.398H864.789V120.704H881.232V122.398Z" fill="#552F6D"/>
<path d="M908.82 122.398H892.375V120.704H908.82V122.398Z" fill="#552F6D"/>
<path d="M936.396 122.398H919.953V120.704H936.396V122.398Z" fill="#552F6D"/>
<path d="M963.99 122.398H947.547V120.704H963.99V122.398Z" fill="#552F6D"/>
<path d="M963.988 99.8828H827.164V98.187H963.988V99.8828Z" fill="#552F6D"/>
<path d="M795.355 203.342H714.078V62.2947H795.355V203.342Z" fill="white"/>
<path d="M786.593 123.77H722.844V73.0917H786.593V123.77Z" fill="#C9D0F7"/>
<path d="M668.562 203.342H714.073V62.2947H668.562V203.342Z" fill="#886BD4"/>
<path d="M784.808 45.33H723.281V62.2949H784.808V45.33Z" fill="white"/>
<path d="M688.828 45.33H723.28V62.2949H688.828V45.33Z" fill="#886BD4"/>
<path d="M810.451 515.391H703.891V137.253H810.451V515.391Z" fill="white"/>
<path d="M658.164 515.391H703.887V137.253H658.164V515.391Z" fill="#886BD4"/>
<path d="M725.349 155.14H714.969V176.211H725.349V155.14Z" fill="#959BD9"/>
<path d="M743.553 155.14H733.172V176.211H743.553V155.14Z" fill="#959BD9"/>
<path d="M761.757 155.14H751.375V176.211H761.757V155.14Z" fill="#959BD9"/>
<path d="M779.95 155.14H769.57V176.211H779.95V155.14Z" fill="#959BD9"/>
<path d="M798.147 155.14H787.766V176.211H798.147V155.14Z" fill="#959BD9"/>
<path d="M725.349 194.093H714.969V215.164H725.349V194.093Z" fill="#959BD9"/>
<path d="M743.553 194.093H733.172V215.164H743.553V194.093Z" fill="#959BD9"/>
<path d="M761.757 194.093H751.375V215.164H761.757V194.093Z" fill="#959BD9"/>
<path d="M779.95 194.093H769.57V215.164H779.95V194.093Z" fill="#959BD9"/>
<path d="M798.147 194.093H787.766V215.164H798.147V194.093Z" fill="#959BD9"/>
<path d="M786.593 82.6387H722.844V80.9428H786.593V82.6387Z" fill="#552F6D"/>
<path d="M784.806 63.1406H722.844V61.4448H784.806V63.1406Z" fill="#552F6D"/>
<path d="M786.593 115.918H722.844V114.222H786.593V115.918Z" fill="#552F6D"/>
<path d="M734.05 123.77H732.344V73.0917H734.05V123.77Z" fill="#552F6D"/>
<path d="M777.09 123.77H775.383V73.0917H777.09V123.77Z" fill="#552F6D"/>
<path d="M755.565 123.77H753.859V73.0917H755.565V123.77Z" fill="#552F6D"/>
<path d="M810.445 138.104H668.938V136.408H810.445V138.104Z" fill="#552F6D"/>
<path d="M636.418 221.432H522.922V182.27H636.418V221.432Z" fill="white"/>
<path d="M487.625 221.432H522.914V182.27H487.625V221.432Z" fill="#886BD4"/>
<path d="M626.18 166.179H528.297V182.271H626.18V166.179Z" fill="white"/>
<path d="M497.859 166.179H528.294V182.271H497.859V166.179Z" fill="#886BD4"/>
<path d="M548.57 219.57V204.687C548.57 200.403 545.1 196.898 540.86 196.898C536.618 196.898 533.148 200.403 533.148 204.687V219.57H548.57Z" fill="#BFC5EF"/>
<path d="M574.437 219.57V204.687C574.437 200.403 570.968 196.898 566.727 196.898C562.485 196.898 559.016 200.403 559.016 204.687V219.57H574.437Z" fill="#BFC5EF"/>
<path d="M626.172 219.57V204.687C626.172 200.403 622.702 196.898 618.462 196.898C614.22 196.898 610.75 200.403 610.75 204.687V219.57H626.172Z" fill="#BFC5EF"/>
<path d="M600.312 219.57V204.687C600.312 200.403 596.843 196.898 592.602 196.898C588.36 196.898 584.891 200.403 584.891 204.687V219.57H600.312Z" fill="#BFC5EF"/>
<path d="M647.204 228.275H470.812V219.571H647.204V228.275Z" fill="#5B2F6B"/>
<path d="M548.578 205.535H533.156V203.839H548.578V205.535Z" fill="#552F6D"/>
<path d="M574.437 205.535H559.016V203.839H574.437V205.535Z" fill="#552F6D"/>
<path d="M600.312 205.535H584.891V203.839H600.312V205.535Z" fill="#552F6D"/>
<path d="M626.179 205.535H610.758V203.839H626.179V205.535Z" fill="#552F6D"/>
<path d="M626.179 183.117H528.297V181.421H626.179V183.117Z" fill="#552F6D"/>
<path d="M399.497 230.754H302.758V80.445H399.497V230.754Z" fill="white"/>
<path d="M268.797 230.754H302.757V80.445H268.797V230.754Z" fill="#886BD4"/>
<path d="M418.386 333.307H292.25V158.845H418.386V333.307Z" fill="white"/>
<path d="M248.812 333.307H292.25V158.845H248.812V333.307Z" fill="#886BD4"/>
<path d="M384.541 80.4473H315.195V70.374H384.541V80.4473Z" fill="white"/>
<path d="M293.641 80.4473H315.202V70.374H293.641V80.4473Z" fill="#959BD9"/>
<path d="M300.844 196.84H311.796V176.687H300.844V196.84Z" fill="#959BD9"/>
<path d="M320.789 196.84H331.742V176.687H320.789V196.84Z" fill="#959BD9"/>
<path d="M340.727 196.84H351.679V176.687H340.727V196.84Z" fill="#959BD9"/>
<path d="M360.672 196.84H371.624V176.687H360.672V196.84Z" fill="#959BD9"/>
<path d="M380.609 196.84H391.562V176.687H380.609V196.84Z" fill="#959BD9"/>
<path d="M400.547 196.84H411.501V176.687H400.547V196.84Z" fill="#959BD9"/>
<path d="M300.844 229.736H311.796V209.583H300.844V229.736Z" fill="#959BD9"/>
<path d="M320.789 229.736H331.742V209.583H320.789V229.736Z" fill="#BFC5EF"/>
<path d="M340.727 229.736H351.679V209.583H340.727V229.736Z" fill="#BFC5EF"/>
<path d="M360.672 229.736H371.624V209.583H360.672V229.736Z" fill="#959BD9"/>
<path d="M380.609 229.736H391.562V209.583H380.609V229.736Z" fill="#959BD9"/>
<path d="M400.547 229.736H411.501V209.583H400.547V229.736Z" fill="#959BD9"/>
<path d="M399.496 159.693H268.867V157.999H399.496V159.693Z" fill="#552F6D"/>
<path d="M390.226 147.352H311.797V90.7121H390.226V147.352Z" fill="#959BD9"/>
<path d="M390.226 102.035H311.797V100.341H390.226V102.035Z" fill="#552F6D"/>
<path d="M390.226 137.723H311.797V136.027H390.226V137.723Z" fill="#552F6D"/>
<path d="M332.792 147.352H331.086V90.7121H332.792V147.352Z" fill="#552F6D"/>
<path d="M372.276 147.352H370.57V90.7121H372.276V147.352Z" fill="#552F6D"/>
<path d="M384.541 81.293H315.195V79.5971H384.541V81.293Z" fill="#552F6D"/>
<path d="M175.89 515.549H28.625V194.646H175.89V515.549Z" fill="white"/>
<path d="M0 515.549H28.6289V194.646H0V515.549Z" fill="#886BD4"/>
<path d="M62.0442 177.141H20.5078V162.554H62.0442V177.141Z" fill="white"/>
<path d="M7.59375 177.141H20.508V162.554H7.59375V177.141Z" fill="#959BD9"/>
<path d="M163.521 177.141H121.984V162.554H163.521V177.141Z" fill="white"/>
<path d="M109.062 177.141H121.977V162.554H109.062V177.141Z" fill="#959BD9"/>
<path d="M0 194.647H180.844V177.143H0V194.647Z" fill="#5B2F6B"/>
<path d="M163.514 224.051H28.625V210.522H163.514V224.051Z" fill="#959BD9"/>
<path d="M0 224.051H28.6289V210.522H0V224.051Z" fill="#5B2F6B"/>
<path d="M206.838 320.908H184.562V210.213H206.838V320.908Z" fill="#5B2F6B"/>
<path d="M184.553 216.979H175.891V215.749H184.553V216.979Z" fill="#5B2F6B"/>
</g>
</svg>
